<svg width="24" height="24" viewBox="137.05 171.05 21.90 21.90" fill="none" xmlns="http://www.w3.org/2000/svg">
  <path d="M154.66 174.25H151.436C150.915 172.954 149.746 172.25 148 172.25H142C139.582 172.25 138.25 173.582 138.25 176V188C138.25 190.418 139.582 191.75 142 191.75H148C149.746 191.75 150.916 191.046 151.436 189.75H154.66C156.624 189.75 157.75 188.624 157.75 186.66V177.34C157.75 175.376 156.624 174.25 154.66 174.25ZM148 190.25H142C140.423 190.25 139.75 189.577 139.75 188V176C139.75 174.423 140.423 173.75 142 173.75H148C149.577 173.75 150.25 174.423 150.25 176V188C150.25 189.577 149.577 190.25 148 190.25ZM156.25 186.66C156.25 187.804 155.804 188.25 154.66 188.25H151.732C151.736 188.165 151.75 188.088 151.75 188V176C151.75 175.912 151.735 175.835 151.732 175.75H154.66C155.804 175.75 156.25 176.196 156.25 177.34V186.66Z" fill="#2E2D2A"/>
</svg>
